<svg width="31" height="31" viewBox="0 0 31 31" fill="none" xmlns="http://www.w3.org/2000/svg">
<path d="M22.6385 11.3196L21.5821 21.8817C21.4223 23.4827 21.3431 24.2826 20.9784 24.8876C20.6585 25.4201 20.188 25.8459 19.6263 26.1113C18.9887 26.4119 18.1863 26.4119 16.5764 26.4119H13.6083C11.9997 26.4119 11.196 26.4119 10.5584 26.1101C9.99625 25.8449 9.52533 25.419 9.2051 24.8863C8.84289 24.2826 8.7624 23.4827 8.60141 21.8817L7.54621 11.3196M16.9789 19.4946V13.2061M13.2058 19.4946V13.2061M5.65967 8.17536H11.4639M11.4639 8.17536L11.9494 4.81481C12.0903 4.20357 12.5984 3.77344 13.1819 3.77344H17.0028C17.5864 3.77344 18.0932 4.20357 18.2353 4.81481L18.7208 8.17536M11.4639 8.17536H18.7208M18.7208 8.17536H24.5251" stroke="black" stroke-width="1.67692" stroke-linecap="round" stroke-linejoin="round"/>
</svg>
