<svg width="16" height="35" viewBox="0 0 16 35" fill="none" xmlns="http://www.w3.org/2000/svg">
<path d="M15.6221 18.5903L2.0445 34.5841C1.81795 34.8511 1.51696 35 1.20397 35C0.890972 35 0.589988 34.8511 0.363439 34.5841L0.34882 34.566C0.238612 34.4365 0.150857 34.2807 0.0908899 34.1081C0.0309229 33.9354 0 33.7494 0 33.5615C0 33.3736 0.0309229 33.1876 0.0908899 33.0149C0.150857 32.8422 0.238612 32.6864 0.34882 32.557L13.1346 17.497L0.34882 2.44302C0.238612 2.31358 0.150857 2.15778 0.0908899 1.9851C0.0309229 1.81241 0 1.62645 0 1.43852C0 1.25059 0.0309229 1.06463 0.0908899 0.891941C0.150857 0.719254 0.238612 0.563454 0.34882 0.434017L0.363439 0.415943C0.589988 0.148945 0.890972 0 1.20397 0C1.51696 0 1.81795 0.148945 2.0445 0.415943L15.6221 16.4097C15.7415 16.5503 15.8366 16.7195 15.9016 16.9069C15.9665 17.0943 16 17.2961 16 17.5C16 17.7039 15.9665 17.9057 15.9016 18.0931C15.8366 18.2805 15.7415 18.4497 15.6221 18.5903Z" fill="black" fill-opacity="0.4"/>
</svg>
