<svg width="27" height="26" viewBox="0 0 27 26" fill="none" xmlns="http://www.w3.org/2000/svg">
<path d="M18.8401 5.04242L20.6475 3.23395C21.0242 2.85718 21.5353 2.64551 22.0681 2.64551C22.6009 2.64551 23.112 2.85718 23.4887 3.23395C23.8655 3.61073 24.0772 4.12175 24.0772 4.65459C24.0772 5.18743 23.8655 5.69845 23.4887 6.07522L12.1119 17.4521C11.5455 18.0182 10.847 18.4342 10.0795 18.6627L7.20287 19.5198L8.05997 16.6432C8.28847 15.8757 8.70454 15.1772 9.27061 14.6108L18.8401 5.04242ZM18.8401 5.04242L21.6663 7.86869M20.0593 15.2343V20.3233C20.0593 20.9627 19.8053 21.5758 19.3532 22.0279C18.9012 22.48 18.288 22.7339 17.6487 22.7339H6.39935C5.76002 22.7339 5.14688 22.48 4.69481 22.0279C4.24274 21.5758 3.98877 20.9627 3.98877 20.3233V9.07398C3.98877 8.43466 4.24274 7.82152 4.69481 7.36944C5.14688 6.91737 5.76002 6.6634 6.39935 6.6634H11.4883" stroke="black" stroke-width="1.67692" stroke-linecap="round" stroke-linejoin="round"/>
</svg>
