<svg width="16" height="35" viewBox="0 0 16 35" fill="none" xmlns="http://www.w3.org/2000/svg">
<path d="M0.377874 18.5903L13.9555 34.5841C14.182 34.8511 14.483 35 14.796 35C15.109 35 15.41 34.8511 15.6366 34.5841L15.6512 34.566C15.7614 34.4365 15.8491 34.2807 15.9091 34.1081C15.9691 33.9354 16 33.7494 16 33.5615C16 33.3736 15.9691 33.1876 15.9091 33.0149C15.8491 32.8422 15.7614 32.6864 15.6512 32.557L2.86536 17.497L15.6512 2.44302C15.7614 2.31358 15.8491 2.15778 15.9091 1.9851C15.9691 1.81241 16 1.62645 16 1.43852C16 1.25059 15.9691 1.06463 15.9091 0.891941C15.8491 0.719254 15.7614 0.563454 15.6512 0.434017L15.6366 0.415943C15.41 0.148945 15.109 0 14.796 0C14.483 0 14.182 0.148945 13.9555 0.415943L0.377874 16.4097C0.258465 16.5503 0.163401 16.7195 0.0984472 16.9069C0.033493 17.0943 0 17.2961 0 17.5C0 17.7039 0.033493 17.9057 0.0984472 18.0931C0.163401 18.2805 0.258465 18.4497 0.377874 18.5903Z" fill="black" fill-opacity="0.4"/>
</svg>
