<svg width="25" height="25" viewBox="0 0 25 25" fill="none" xmlns="http://www.w3.org/2000/svg">
<path d="M12.5 2.08301C14.1171 2.08295 15.6712 2.70964 16.8359 3.83141C18.0006 4.95318 18.6852 6.48271 18.7458 8.09863L18.75 8.33301H19.7917C20.3173 8.33284 20.8235 8.53135 21.2089 8.88873C21.5943 9.24612 21.8304 9.73597 21.8698 10.2601L21.875 10.4163V20.833C21.8752 21.3586 21.6767 21.8648 21.3193 22.2502C20.9619 22.6356 20.472 22.8717 19.9479 22.9111L19.7917 22.9163H5.20833C4.68273 22.9165 4.17649 22.718 3.7911 22.3606C3.4057 22.0032 3.16963 21.5134 3.13021 20.9893L3.125 20.833V10.4163C3.12483 9.89074 3.32334 9.3845 3.68073 8.9991C4.03811 8.61371 4.52796 8.37764 5.05208 8.33822L5.20833 8.33301H6.25C6.25 6.67541 6.90848 5.08569 8.08058 3.91359C9.25269 2.74149 10.8424 2.08301 12.5 2.08301ZM19.7917 10.4163H5.20833V20.833H19.7917V10.4163ZM12.5 12.4997C12.9444 12.4998 13.377 12.642 13.7348 12.9056C14.0926 13.1691 14.3568 13.5401 14.4887 13.9644C14.6207 14.3888 14.6135 14.8441 14.4682 15.2641C14.3229 15.684 14.0472 16.0465 13.6812 16.2986L13.5417 16.3872V17.708C13.5414 17.9735 13.4397 18.2289 13.2574 18.4219C13.0752 18.615 12.8261 18.7312 12.561 18.7467C12.296 18.7623 12.035 18.6761 11.8314 18.5056C11.6278 18.3352 11.497 18.0935 11.4656 17.8299L11.4583 17.708V16.3872C11.0612 16.1579 10.7508 15.8039 10.5753 15.3802C10.3998 14.9565 10.3691 14.4868 10.4877 14.0438C10.6064 13.6008 10.868 13.2094 11.2318 12.9302C11.5956 12.651 12.0414 12.4997 12.5 12.4997ZM12.5 4.16634C11.3949 4.16634 10.3351 4.60533 9.55372 5.38673C8.77232 6.16813 8.33333 7.22794 8.33333 8.33301H16.6667C16.6667 7.22794 16.2277 6.16813 15.4463 5.38673C14.6649 4.60533 13.6051 4.16634 12.5 4.16634Z" fill="#757575"/>
</svg>
