<svg width="25" height="25" viewBox="0 0 25 25" fill="none" xmlns="http://www.w3.org/2000/svg">
<path d="M17.1873 2.08301V5.20801M7.81234 2.08301V5.20801M12.4998 2.08301V5.20801M8.33317 15.6247H12.4998M8.33317 11.458H16.6665M13.5415 3.64551H11.4582C8.02067 3.64551 6.30192 3.64551 5.23421 4.71322C4.1665 5.78092 4.1665 7.49967 4.1665 10.9372V15.6247C4.1665 19.0622 4.1665 20.7809 5.23421 21.8486C6.30192 22.9163 8.02067 22.9163 11.4582 22.9163H13.5415C16.979 22.9163 18.6978 22.9163 19.7655 21.8486C20.8332 20.7809 20.8332 19.0622 20.8332 15.6247V10.9372C20.8332 7.49967 20.8332 5.78092 19.7655 4.71322C18.6978 3.64551 16.979 3.64551 13.5415 3.64551Z" stroke="#757575" stroke-width="1.5" stroke-linecap="round" stroke-linejoin="round"/>
</svg>
